<?xml version="1.0" encoding="UTF-8"?>
<svg xmlns="http://www.w3.org/2000/svg" xmlns:xlink="http://www.w3.org/1999/xlink" width="1105.15pt" height="537.898pt" viewBox="0 0 1105.15 537.898">
<path fill-rule="nonzero" fill="#ffffff" fill-opacity="1" d="M 195.898438 249.476562 C 191.949219 255.230469 184.230469 258.105469 172.722656 258.105469 L 157.160156 258.105469 L 157.160156 191.785156 L 171.367188 191.785156 C 182.875 191.785156 190.824219 194.492188 195.226562 199.90625 C 199.621094 205.320312 201.820312 213.441406 201.820312 224.269531 C 201.820312 235.324219 199.839844 243.722656 195.898438 249.476562 M 201.144531 341.339844 C 200.691406 346.304688 199.453125 350.589844 197.421875 354.199219 C 195.394531 357.808594 192.398438 360.625 188.457031 362.65625 C 184.507812 364.683594 179.035156 365.703125 172.046875 365.703125 L 157.160156 365.703125 L 157.160156 288.558594 L 172.382812 288.558594 C 178.695312 288.558594 183.773438 289.292969 187.609375 290.753906 C 191.441406 292.226562 194.488281 294.535156 196.746094 297.691406 C 198.777344 300.851562 200.128906 304.683594 200.808594 309.195312 C 201.480469 313.710938 201.820312 319.007812 201.820312 325.097656 C 201.820312 330.96875 201.589844 336.382812 201.144531 341.339844 M 220.433594 177.910156 C 215.46875 172.277344 209.097656 167.761719 201.3125 164.382812 C 193.53125 160.996094 184.109375 159.304688 173.058594 159.304688 L 122.644531 159.304688 L 122.644531 400.214844 L 169.675781 400.214844 C 192.230469 400.214844 208.640625 394.578125 218.910156 383.296875 C 229.171875 372.019531 234.304688 355.777344 234.304688 334.570312 L 234.304688 321.035156 C 234.304688 308.179688 232.386719 298.03125 228.550781 290.585938 C 224.714844 283.144531 218.738281 277.507812 210.621094 273.667969 C 218.511719 269.15625 224.375 263.746094 228.214844 257.425781 C 230.242188 254.046875 231.765625 250.097656 232.78125 245.585938 C 233.796875 241.074219 234.304688 235.550781 234.304688 229.007812 L 234.304688 220.207031 C 234.304688 212.316406 233.226562 204.703125 231.089844 197.371094 C 228.945312 190.042969 225.390625 183.554688 220.433594 177.910156 "/>
<path fill-rule="nonzero" fill="#ffffff" fill-opacity="1" d="M 301.296875 159.304688 L 266.785156 159.304688 L 266.785156 400.214844 L 369.644531 400.214844 L 369.644531 365.703125 L 301.296875 365.703125 Z M 301.296875 159.304688 "/>
<path fill-rule="nonzero" fill="#ffffff" fill-opacity="1" d="M 512.089844 159.304688 L 477.578125 159.304688 L 427.160156 269.269531 L 426.488281 269.269531 L 426.488281 159.304688 L 391.976562 159.304688 L 391.976562 400.214844 L 426.488281 400.214844 L 426.488281 328.144531 L 445.09375 293.292969 L 484.347656 400.214844 L 520.890625 400.214844 L 465.058594 255.738281 Z M 512.089844 159.304688 "/>
<path fill-rule="nonzero" fill="#ffffff" fill-opacity="1" d="M 85.292969 91.402344 L 1019.007812 91.402344 L 1019.007812 446.394531 L 85.292969 446.394531 Z M 59.386719 472.300781 L 1044.914062 472.300781 L 1044.914062 65.496094 L 59.386719 65.496094 Z M 59.386719 472.300781 "/>
<path fill-rule="nonzero" fill="#ffffff" fill-opacity="1" d="M 906.074219 321.957031 C 914.105469 316.101562 922.242188 310.390625 930.355469 304.644531 C 951.730469 289.496094 961.945312 268.378906 963.0625 242.636719 C 963.5625 231.152344 960.921875 220.328125 952.773438 211.671875 C 944.910156 203.320312 929.007812 198.539062 919.882812 208.824219 C 910.890625 218.960938 902.238281 229.730469 895.417969 241.378906 C 887.375 255.125 893.417969 268.894531 908.269531 274.941406 C 915.707031 277.96875 923.410156 278.066406 931.234375 276.398438 C 932.449219 282.304688 929.199219 285.703125 925.324219 288.890625 C 912.855469 299.144531 900.429688 309.453125 887.976562 319.730469 C 887.625 320.023438 887.164062 320.175781 886.429688 320.5625 C 886.535156 318.511719 886.597656 316.863281 886.707031 315.222656 C 887.773438 299.417969 877.644531 288.453125 861.835938 288.007812 C 853.734375 287.777344 846.632812 290.414062 840.132812 294.871094 C 831.824219 300.570312 823.773438 306.65625 815.398438 312.246094 C 805.910156 318.574219 795.71875 323.433594 784.277344 325.09375 C 781.496094 325.496094 778.664062 325.535156 775.160156 325.789062 C 775.726562 323.132812 776.234375 321.277344 776.5 319.390625 C 777.777344 310.351562 778.46875 301.292969 776.441406 292.269531 C 774.480469 283.523438 770.082031 276.753906 761.058594 273.902344 C 750.550781 270.578125 742.0625 273.804688 735.304688 282.101562 C 729.480469 289.253906 723.71875 296.464844 718.171875 303.835938 C 715.785156 307.003906 713.757812 310.507812 712.023438 314.082031 C 704.914062 328.726562 708.894531 341.097656 722.929688 347.507812 C 726.484375 349.128906 730.484375 349.953125 734.371094 350.625 C 740.113281 351.613281 745.9375 352.136719 752.300781 352.933594 C 750.976562 354.75 750.078125 356.109375 749.054688 357.367188 C 741.867188 366.183594 732.734375 372.574219 722.949219 378.109375 C 702.234375 389.828125 680.609375 399.554688 658.207031 407.570312 C 656.550781 408.164062 654.894531 408.761719 653.191406 409.375 C 653.296875 411.863281 653.390625 414.019531 653.507812 416.777344 C 678.585938 414.898438 702.9375 412.421875 726.597656 405.460938 C 728.5 404.902344 730.300781 403.636719 731.863281 402.351562 C 748.1875 388.890625 759.402344 371.742188 767.789062 352.53125 C 768.375 351.1875 769.976562 349.910156 771.398438 349.371094 C 780.140625 346.050781 789.261719 343.578125 797.683594 339.613281 C 807.648438 334.917969 816.921875 328.769531 826.730469 323.714844 C 831.070312 321.476562 835.882812 319.566406 840.671875 318.914062 C 851.953125 317.375 858.539062 323.085938 857.875 334.351562 C 857.40625 342.238281 855.605469 350.164062 853.410156 357.789062 C 851.414062 364.71875 848.082031 371.261719 845.359375 377.929688 C 852.796875 382.894531 853.246094 382.828125 857.660156 375.644531 C 870.488281 354.761719 886.1875 336.460938 906.074219 321.957031 "/>
<path fill-rule="nonzero" fill="#ffffff" fill-opacity="1" d="M 620.574219 284.023438 C 621.457031 283.0625 623.476562 282.40625 624.761719 282.664062 C 640.621094 285.808594 652.683594 304.726562 649.132812 320.628906 C 646.644531 331.789062 637.527344 338.121094 623.945312 338.121094 C 611.699219 338.125 605.28125 331.683594 605.640625 319.394531 C 606.039062 305.71875 611.371094 293.996094 620.574219 284.023438 M 611.269531 364.117188 C 622.171875 363.546875 631.929688 360.636719 640.496094 354.210938 C 662.167969 337.957031 671.359375 315.476562 672.507812 287.558594 C 671.855469 282.546875 671.707031 275.953125 670.054688 269.765625 C 665.664062 253.34375 656.125 241.15625 639.289062 235.917969 C 634.425781 234.40625 629.757812 234.828125 626.027344 238.972656 C 618.632812 247.195312 613.257812 256.570312 609.941406 267.097656 C 609.371094 268.90625 608.792969 271.121094 609.339844 272.777344 C 610.515625 276.332031 608.683594 278.425781 606.777344 280.84375 C 593.574219 297.589844 586.011719 316.476562 585.78125 337.960938 C 585.605469 354.234375 598.800781 364.773438 611.269531 364.117188 "/>
<path fill-rule="nonzero" fill="#ffffff" fill-opacity="1" d="M 608.523438 193.757812 C 616.585938 187.476562 624.519531 181.109375 630.328125 171.933594 C 636.433594 177.628906 642.324219 183.035156 648.097656 188.558594 C 649.808594 190.191406 651.535156 191.164062 653.480469 189.410156 C 660.121094 183.433594 667.289062 177.878906 673.074219 171.148438 C 680.355469 162.667969 679.410156 154.703125 671.164062 147.164062 C 666.503906 142.902344 661.117188 139.445312 656.210938 135.441406 C 652.65625 132.542969 649.746094 133.253906 646.867188 136.332031 C 640.742188 142.867188 634.585938 149.371094 628.796875 155.511719 C 622.28125 150.554688 615.964844 145.703125 609.597656 140.921875 C 607.019531 138.988281 604.242188 138.464844 601.832031 141.117188 C 593.769531 149.992188 585.734375 158.894531 577.820312 167.902344 C 575.863281 170.128906 576.539062 172.148438 578.882812 174.179688 C 586.082031 180.402344 593.238281 186.695312 600.035156 193.34375 C 603.125 196.363281 605.355469 196.230469 608.523438 193.757812 "/>
<path fill-rule="nonzero" fill="#ffffff" fill-opacity="1" d="M 886.007812 161.625 C 893.203125 167.847656 900.359375 174.144531 907.160156 180.792969 C 910.246094 183.808594 912.476562 183.675781 915.644531 181.207031 C 923.707031 174.921875 931.644531 168.558594 937.453125 159.382812 C 943.558594 165.078125 949.445312 170.484375 955.21875 176.003906 C 956.929688 177.640625 958.660156 178.609375 960.605469 176.859375 C 967.246094 170.882812 974.414062 165.328125 980.195312 158.59375 C 987.480469 150.117188 986.53125 142.152344 978.285156 134.609375 C 973.628906 130.347656 968.242188 126.890625 963.332031 122.886719 C 959.78125 119.992188 956.871094 120.703125 953.988281 123.777344 C 947.867188 130.316406 941.707031 136.820312 935.917969 142.960938 C 929.40625 138.003906 923.089844 133.148438 916.71875 128.371094 C 914.140625 126.433594 911.363281 125.910156 908.953125 128.5625 C 900.890625 137.4375 892.859375 146.339844 884.945312 155.347656 C 882.984375 157.578125 883.660156 159.597656 886.007812 161.625 "/>
</svg>
